<svg width="193" height="95" viewBox="0 0 193 95" fill="none" xmlns="http://www.w3.org/2000/svg">
<path d="M102.408 8.50635C102.408 10.1454 101.921 11.7475 101.009 13.1092C100.097 14.471 98.8005 15.531 97.2849 16.1549C95.7693 16.7788 94.1026 16.9382 92.4961 16.6131C90.8897 16.2881 89.4161 15.4931 88.2623 14.329C87.1085 13.165 86.3264 11.6844 86.0155 10.0751C85.7046 8.46589 85.8789 6.80058 86.516 5.2905C87.1532 3.78041 88.2246 2.49369 89.5943 1.5936C90.964 0.693506 92.5703 0.22056 94.2092 0.234937C95.292 0.234895 96.364 0.449435 97.3635 0.865997C98.363 1.28256 99.2701 1.89293 100.032 2.66197C100.795 3.43101 101.397 4.34339 101.805 5.34652C102.212 6.34964 102.417 7.42357 102.408 8.50635Z" fill="#FFF100"/>
<path d="M54.3551 5.7489H30.0966V13.1627H21.3085V21.751H13.3918V38.0469H54.3551V5.7489Z" fill="#505CA9"/>
<path d="M55.1429 26.2306H0V38.0469H55.1429V26.2306Z" fill="#5D3896"/>
<path d="M138.645 5.7489H162.903V13.1627H171.692V21.751H179.608V38.0469H138.645V5.7489Z" fill="#505CA9"/>
<path d="M193 26.2306H137.857V38.0469H193V26.2306Z" fill="#5D3896"/>
<path d="M61.4449 59.3163H41.3825V53.1922H34.1135V46.0351H27.5714V32.5326H61.4449V59.3163Z" fill="#F04C5A"/>
<path d="M62.2326 32.5326H16.5428V41.9857H62.2326V32.5326Z" fill="#5D3896"/>
<path d="M131.555 59.3163H151.617V53.1922H158.886V46.0351H165.429V32.5326H131.555V59.3163Z" fill="#F04C5A"/>
<path d="M176.457 32.5326H130.767V41.9857H176.457V32.5326Z" fill="#5D3896"/>
<path d="M124.465 41.1979H66.1714V50.4082H70.514V57.187H75.2246V64.7764H77.948V79.2919H84.1306V88.9443H89.2828V94.7652H101.354V88.9443H108.052V79.2919H112.762V64.7764H115.486V57.187H120.123V50.4082H124.465V41.1979Z" fill="#EA4325"/>
<path d="M111.073 41.1979H78.7755V50.4082H81.176V57.187H83.7948V64.7764H85.2496V79.2919H88.7413V88.9443H91.5783V94.7652H98.2706V88.9443H101.981V79.2919H104.599V64.7764H106.127V57.187H108.673V50.4082H111.073V41.1979Z" fill="#FFE500"/>
<path d="M101.62 41.1979H89.0164V50.4082H89.9689V57.187H90.9948V64.7764H91.5811V79.2919H92.9002V88.9443H93.9993V94.7652H96.6374V88.9443H98.1029V79.2919H99.1289V64.7764H99.7151V57.187H100.741V50.4082H101.62V41.1979Z" fill="#FFF8AC"/>
<path d="M73.2612 61.6796H68.5347V67.1939H73.2612V61.6796Z" fill="#EA4325"/>
<path d="M80.351 86.8877H77.2V89.251H80.351V86.8877Z" fill="#EA4325"/>
<path d="M74.8367 71.1326H71.6857V73.4958H74.8367V71.1326Z" fill="#FFE500"/>
<path d="M116.588 67.1938H122.102V61.6796H116.588V67.1938Z" fill="#EA4325"/>
<path d="M109.498 89.251H112.649V86.8877H109.498V89.251Z" fill="#EA4325"/>
<path d="M115.012 73.4958H118.163V71.1326H115.012V73.4958Z" fill="#FFE500"/>
<path d="M64.244 31.0064L64.1503 45.9314L128.556 46.3361L128.65 31.411L64.244 31.0064Z" fill="#505CA9"/>
<path d="M45.9644 14.1219L45.817 37.5756L146.984 38.2112L147.131 14.7576L45.9644 14.1219Z" fill="#5D3896"/>
</svg>
