<svg width="203" height="129" viewBox="0 0 203 129" fill="none" xmlns="http://www.w3.org/2000/svg">
<mask id="path-1-inside-1_31_10238" fill="white">
<path fill-rule="evenodd" clip-rule="evenodd" d="M3.5914 2.20376H5.36276V0H198.032V2.57137H199.803V5.14234H200.787V9.18284H202.164V102.113H200.984V106.154H200V108.725H198.228V111.617H90.8728V126.356H88.2164V122.683H85.658V119.01H83.0995V115.336H80.5409V111.663H77.8137L77.7855 111.617H5.16569V108.725H3.39454V106.154H2.41062V102.113H0.835938V8.81565H2.60744V4.77504H3.5914V2.20376ZM87.8228 128.193V128.273L87.7742 128.193H87.8228Z"/>
</mask>
<path fill-rule="evenodd" clip-rule="evenodd" d="M3.5914 2.20376H5.36276V0H198.032V2.57137H199.803V5.14234H200.787V9.18284H202.164V102.113H200.984V106.154H200V108.725H198.228V111.617H90.8728V126.356H88.2164V122.683H85.658V119.01H83.0995V115.336H80.5409V111.663H77.8137L77.7855 111.617H5.16569V108.725H3.39454V106.154H2.41062V102.113H0.835938V8.81565H2.60744V4.77504H3.5914V2.20376ZM87.8228 128.193V128.273L87.7742 128.193H87.8228Z" fill="#C8CCFF"/>
<path d="M3.5914 2.20376V0.203763H1.5914V2.20376H3.5914ZM5.36276 2.20376V4.20376H7.36276V2.20376H5.36276ZM5.36276 0V-2H3.36276V0H5.36276ZM198.032 0H200.032V-2H198.032V0ZM198.032 2.57137H196.032V4.57137H198.032V2.57137ZM199.803 2.57137H201.803V0.571373H199.803V2.57137ZM199.803 5.14234H197.803V7.14234H199.803V5.14234ZM200.787 5.14234H202.787V3.14234H200.787V5.14234ZM200.787 9.18284H198.787V11.1828H200.787V9.18284ZM202.164 9.18284H204.164V7.18284H202.164V9.18284ZM202.164 102.113V104.113H204.164V102.113H202.164ZM200.984 102.113V100.113H198.984V102.113H200.984ZM200.984 106.154V108.154H202.984V106.154H200.984ZM200 106.154V104.154H198V106.154H200ZM200 108.725V110.725H202V108.725H200ZM198.228 108.725V106.725H196.228V108.725H198.228ZM198.228 111.617V113.617H200.228V111.617H198.228ZM90.8728 111.617V109.617H88.8728V111.617H90.8728ZM90.8728 126.356V128.356H92.8728V126.356H90.8728ZM88.2164 126.356H86.2164V128.356H88.2164V126.356ZM88.2164 122.683H90.2164V120.683H88.2164V122.683ZM85.658 122.683H83.658V124.683H85.658V122.683ZM85.658 119.01H87.658V117.01H85.658V119.01ZM83.0995 119.01H81.0995V121.01H83.0995V119.01ZM83.0995 115.336H85.0995V113.336H83.0995V115.336ZM80.5409 115.336H78.5409V117.336H80.5409V115.336ZM80.5409 111.663H82.5409V109.663H80.5409V111.663ZM77.8137 111.663L76.1006 112.695L76.6837 113.663H77.8137V111.663ZM77.7855 111.617L79.4986 110.584L78.9154 109.617H77.7855V111.617ZM5.16569 111.617H3.16569V113.617H5.16569V111.617ZM5.16569 108.725H7.16569V106.725H5.16569V108.725ZM3.39454 108.725H1.39454V110.725H3.39454V108.725ZM3.39454 106.154H5.39454V104.154H3.39454V106.154ZM2.41062 106.154H0.410619V108.154H2.41062V106.154ZM2.41062 102.113H4.41062V100.113H2.41062V102.113ZM0.835938 102.113H-1.16406V104.113H0.835938V102.113ZM0.835938 8.81565V6.81565H-1.16406V8.81565H0.835938ZM2.60744 8.81565V10.8156H4.60744V8.81565H2.60744ZM2.60744 4.77504V2.77504H0.607436V4.77504H2.60744ZM3.5914 4.77504V6.77504H5.5914V4.77504H3.5914ZM87.8228 128.273L86.1097 129.306L89.8228 135.468V128.273H87.8228ZM87.8228 128.193H89.8228V126.193H87.8228V128.193ZM87.7742 128.193V126.193H84.234L86.0611 129.225L87.7742 128.193ZM3.5914 4.20376H5.36276V0.203763H3.5914V4.20376ZM7.36276 2.20376V0H3.36276V2.20376H7.36276ZM198.032 -2H5.36276V2H198.032V-2ZM200.032 2.57137V0H196.032V2.57137H200.032ZM199.803 0.571373H198.032V4.57137H199.803V0.571373ZM201.803 5.14234V2.57137H197.803V5.14234H201.803ZM200.787 3.14234H199.803V7.14234H200.787V3.14234ZM202.787 9.18284V5.14234H198.787V9.18284H202.787ZM202.164 7.18284H200.787V11.1828H202.164V7.18284ZM204.164 102.113V9.18284H200.164V102.113H204.164ZM200.984 104.113H202.164V100.113H200.984V104.113ZM202.984 106.154V102.113H198.984V106.154H202.984ZM200 108.154H200.984V104.154H200V108.154ZM202 108.725V106.154H198V108.725H202ZM198.228 110.725H200V106.725H198.228V110.725ZM200.228 111.617V108.725H196.228V111.617H200.228ZM90.8728 113.617H198.228V109.617H90.8728V113.617ZM92.8728 126.356V111.617H88.8728V126.356H92.8728ZM88.2164 128.356H90.8728V124.356H88.2164V128.356ZM86.2164 122.683V126.356H90.2164V122.683H86.2164ZM85.658 124.683H88.2164V120.683H85.658V124.683ZM83.658 119.01V122.683H87.658V119.01H83.658ZM83.0995 121.01H85.658V117.01H83.0995V121.01ZM81.0995 115.336V119.01H85.0995V115.336H81.0995ZM80.5409 117.336H83.0995V113.336H80.5409V117.336ZM78.5409 111.663V115.336H82.5409V111.663H78.5409ZM77.8137 113.663H80.5409V109.663H77.8137V113.663ZM76.0724 112.649L76.1006 112.695L79.5268 110.631L79.4986 110.584L76.0724 112.649ZM5.16569 113.617H77.7855V109.617H5.16569V113.617ZM3.16569 108.725V111.617H7.16569V108.725H3.16569ZM3.39454 110.725H5.16569V106.725H3.39454V110.725ZM1.39454 106.154V108.725H5.39454V106.154H1.39454ZM2.41062 108.154H3.39454V104.154H2.41062V108.154ZM0.410619 102.113V106.154H4.41062V102.113H0.410619ZM0.835938 104.113H2.41062V100.113H0.835938V104.113ZM-1.16406 8.81565V102.113H2.83594V8.81565H-1.16406ZM2.60744 6.81565H0.835938V10.8156H2.60744V6.81565ZM0.607436 4.77504V8.81565H4.60744V4.77504H0.607436ZM3.5914 2.77504H2.60744V6.77504H3.5914V2.77504ZM1.5914 2.20376V4.77504H5.5914V2.20376H1.5914ZM89.8228 128.273V128.193H85.8228V128.273H89.8228ZM86.0611 129.225L86.1097 129.306L89.5358 127.241L89.4872 127.16L86.0611 129.225ZM87.8228 126.193H87.7742V130.193H87.8228V126.193Z" fill="#1A1E53" mask="url(#path-1-inside-1_31_10238)"/>
</svg>
