<svg width="51" height="52" viewBox="0 0 51 52" fill="none" xmlns="http://www.w3.org/2000/svg">
<path fill-rule="evenodd" clip-rule="evenodd" d="M41.811 7.02093C38.2373 3.67778 33.7964 1.4123 29 0.479126V3.00001H18V7.00001H11V15H4V23H0V32H4V41H11V47H18V51H22.2937V31.2324H15.3526V27.7619H22.2937V22.5561C22.2937 20.255 23.2078 18.0481 24.8349 16.421C26.462 14.7939 28.6689 13.8798 30.97 13.8798H32.7053V17.3503H30.97C29.5893 17.3503 28.2652 17.8987 27.2889 18.875C26.3127 19.8513 25.7642 21.1754 25.7642 22.5561V27.7619H32.7053V31.2324H25.7642V51H29V51.5788C32.88 50.8239 36.552 49.1921 39.7277 46.7909C43.7749 43.7306 46.8395 39.5541 48.5445 34.7751C50.2494 29.9962 50.5204 24.823 49.3241 19.8921C48.1278 14.9611 45.5163 10.4873 41.811 7.02093Z" fill="#402F5C"/>
</svg>
