<svg width="385" height="142" viewBox="0 0 385 142" fill="none" xmlns="http://www.w3.org/2000/svg">
<path d="M180 129.5H0V141.5H180V129.5Z" fill="#332A74"/>
<path d="M205 129.5H385V141.5H205V129.5Z" fill="#332A74"/>
<path d="M25 120.5L25 89.5H15L15 120.5H25Z" fill="#F04C5A"/>
<path d="M360 120.5V89.5H370V120.5H360Z" fill="#F04C5A"/>
<path d="M25 120.5V99.5H15L15 120.5H25Z" fill="#332A74"/>
<path d="M360 120.5V99.5H370V120.5H360Z" fill="#332A74"/>
<path d="M29 127.5V119.5H11V127.5H29Z" fill="#2E498F"/>
<path d="M356 127.5V119.5H374V127.5H356Z" fill="#2E498F"/>
<path d="M34 136.5V123.5H6V136.5H34Z" fill="#3C3485"/>
<path d="M351 136.5V123.5H379V136.5H351Z" fill="#3C3485"/>
<path d="M28 53.5H11V64.5H28V53.5Z" fill="#A0D080"/>
<path d="M357 53.5H374V64.5H357V53.5Z" fill="#A0D080"/>
<path d="M25 60.5H13V72.5H25V60.5Z" fill="#A0D080"/>
<path d="M360 60.5H372V72.5H360V60.5Z" fill="#A0D080"/>
<path d="M22 48.5H17V78.5H22V48.5Z" fill="#A0D080"/>
<path d="M363 48.5H368V78.5H363V48.5Z" fill="#A0D080"/>
<path d="M24 51.5H14V55.5H24V51.5Z" fill="#A0D080"/>
<path d="M361 51.5H371V55.5H361V51.5Z" fill="#A0D080"/>
<g style="mix-blend-mode:multiply">
<path d="M21.9081 52.9056H16.218V58.5957H21.9081V52.9056Z" fill="#A0D080"/>
</g>
<g style="mix-blend-mode:multiply">
<path d="M363.092 52.9056H368.782V58.5957H363.092V52.9056Z" fill="#A0D080"/>
</g>
<path d="M23 56.5H15V64.5H23V56.5Z" fill="#FFF89F"/>
<path d="M362 56.5H370V64.5H362V56.5Z" fill="#FFF89F"/>
<path d="M28 5.5H11V16.5H28V5.5Z" fill="#A0D080"/>
<path d="M357 5.5H374V16.5H357V5.5Z" fill="#A0D080"/>
<path d="M25 12.5H13V24.5H25V12.5Z" fill="#A0D080"/>
<path d="M360 12.5H372V24.5H360V12.5Z" fill="#A0D080"/>
<path d="M22 0.5H17V30.5H22V0.5Z" fill="#A0D080"/>
<path d="M363 0.5H368V30.5H363V0.5Z" fill="#A0D080"/>
<path d="M24 3.5H14V7.5H24V3.5Z" fill="#A0D080"/>
<path d="M361 3.5H371V7.5H361V3.5Z" fill="#A0D080"/>
<g style="mix-blend-mode:multiply">
<path d="M21.9081 4.9386H16.218V10.6287H21.9081V4.9386Z" fill="#A0D080"/>
</g>
<g style="mix-blend-mode:multiply">
<path d="M363.092 4.9386H368.782V10.6287H363.092V4.9386Z" fill="#A0D080"/>
</g>
<path d="M23 8.5H15V16.5H23V8.5Z" fill="#FFF89F"/>
<path d="M362 8.5H370V16.5H362V8.5Z" fill="#FFF89F"/>
</svg>
